<svg version="1.1" id="Layer_1" xmlns="http://www.w3.org/2000/svg" xmlns:xlink="http://www.w3.org/1999/xlink" x="0px" y="0px"
	 width="100%" viewBox="0 0 500 500" enable-background="new 0 0 500 500" xml:space="preserve">
<path fill="none" opacity="1.000000" stroke="transparent" 
	d="
M241.000000,501.000000 
	C160.666687,501.000000 80.833374,501.000000 1.000043,501.000000 
	C1.000029,334.333405 1.000029,167.666779 1.000014,1.000132 
	C167.666565,1.000088 334.333130,1.000088 500.999756,1.000044 
	C500.999847,167.666519 500.999847,334.333038 500.999939,500.999786 
	C414.500000,501.000000 328.000000,501.000000 241.000000,501.000000 
M352.764069,306.453552 
	C352.709930,305.978638 352.655762,305.503693 352.932648,304.401215 
	C359.143921,298.614746 365.587341,293.055695 371.521881,286.998138 
	C387.750458,270.433228 401.657867,252.292114 408.280396,229.568787 
	C414.788605,207.237701 409.165802,187.546341 392.754639,174.629364 
	C378.564209,163.460297 350.280914,155.913559 332.487579,158.463181 
	C335.918030,159.563644 339.572479,160.598511 343.129822,161.899002 
	C370.278351,171.823990 381.830719,194.957840 373.299164,222.520416 
	C366.108948,245.749573 351.031067,263.593536 333.384460,279.447876 
	C306.230988,303.843567 274.798187,320.918243 240.119904,331.904083 
	C212.891220,340.529968 185.106888,345.094238 156.494507,339.980286 
	C142.788239,337.530548 130.002884,332.716949 120.328629,322.313232 
	C106.492607,307.433929 106.390686,290.040771 112.393799,271.860107 
	C112.979637,270.085876 113.609978,268.326324 114.219650,266.559967 
	C113.734383,266.223053 113.249115,265.886108 112.763840,265.549194 
	C112.405548,266.306549 112.076660,267.079498 111.684494,267.818848 
	C106.014091,278.509064 98.913963,288.692993 94.929733,299.977417 
	C83.797760,331.506134 95.935371,356.243134 127.206009,368.275452 
	C143.020111,374.360413 159.571518,375.737213 176.319611,374.963196 
	C180.655869,374.762817 183.712891,375.977966 186.866119,378.929810 
	C224.368408,414.037476 281.878662,414.063660 319.635620,379.069092 
	C338.024689,362.025360 349.228607,341.249939 351.998444,315.292725 
	C352.087952,313.660522 352.177429,312.028320 352.654175,309.834442 
	C352.633667,308.941376 352.613159,308.048340 352.764069,306.453552 
M235.355331,321.871735 
	C250.198883,315.627045 265.431030,310.158020 279.797119,302.960358 
	C302.735291,291.467957 322.983398,276.089966 340.252197,256.932709 
	C342.598907,254.329346 342.914642,252.206131 341.487366,249.070724 
	C338.321564,242.115860 335.747375,234.890945 332.561432,227.946106 
	C317.183899,194.425568 297.819580,163.188278 277.499847,132.515778 
	C269.629028,120.634872 261.540863,108.897987 253.310043,96.738510 
	C252.399246,97.898430 251.745483,98.620132 251.214676,99.423119 
	C237.083725,120.800621 222.661774,141.993561 208.920532,163.618973 
	C191.056320,191.732956 175.122528,220.889648 163.507889,252.249878 
	C155.273758,274.482452 151.656189,297.216583 155.073914,320.858368 
	C156.302704,329.358398 157.615997,330.516693 165.180847,329.240662 
	C159.554169,301.780457 164.703705,275.627960 174.728043,250.089752 
	C175.052170,251.934998 174.786469,253.701462 174.434723,255.450623 
	C169.793961,278.528015 166.633728,301.686249 168.705368,325.361206 
	C169.134262,330.262695 171.062134,330.996033 175.089767,331.043060 
	C195.417221,331.280396 215.196426,328.048553 235.355331,321.871735 
z"/>
<path fill="#1189B8" opacity="1.000000" stroke="none" 
	d="
M234.959473,321.949341 
	C215.196426,328.048553 195.417221,331.280396 175.089767,331.043060 
	C171.062134,330.996033 169.134262,330.262695 168.705368,325.361206 
	C166.633728,301.686249 169.793961,278.528015 174.434723,255.450623 
	C174.786469,253.701462 175.052170,251.934998 174.728043,250.089752 
	C164.703705,275.627960 159.554169,301.780457 165.180847,329.240662 
	C157.615997,330.516693 156.302704,329.358398 155.073914,320.858368 
	C151.656189,297.216583 155.273758,274.482452 163.507889,252.249878 
	C175.122528,220.889648 191.056320,191.732956 208.920532,163.618973 
	C222.661774,141.993561 237.083725,120.800621 251.214676,99.423119 
	C251.745483,98.620132 252.399246,97.898430 253.310043,96.738510 
	C261.540863,108.897987 269.629028,120.634872 277.499847,132.515778 
	C297.819580,163.188278 317.183899,194.425568 332.561432,227.946106 
	C335.747375,234.890945 338.321564,242.115860 341.487366,249.070724 
	C342.914642,252.206131 342.598907,254.329346 340.252197,256.932709 
	C322.983398,276.089966 302.735291,291.467957 279.797119,302.960358 
	C265.431030,310.158020 250.198883,315.627045 234.959473,321.949341 
M175.425140,248.921021 
	C175.526199,248.418549 175.627243,247.916092 175.728287,247.413605 
	C175.454697,247.748169 175.181107,248.082733 175.425140,248.921021 
z"/>
<path fill="#02AFEF" opacity="1.000000" stroke="none" 
	d="
M351.826233,316.103912 
	C349.228607,341.249939 338.024689,362.025360 319.635620,379.069092 
	C281.878662,414.063660 224.368408,414.037476 186.866119,378.929810 
	C183.712891,375.977966 180.655869,374.762817 176.319611,374.963196 
	C159.571518,375.737213 143.020111,374.360413 127.206009,368.275452 
	C95.935371,356.243134 83.797760,331.506134 94.929733,299.977417 
	C98.913963,288.692993 106.014091,278.509064 111.684494,267.818848 
	C112.076660,267.079498 112.405548,266.306549 112.763840,265.549194 
	C113.249115,265.886108 113.734383,266.223053 114.219650,266.559967 
	C113.609978,268.326324 112.979637,270.085876 112.393799,271.860107 
	C106.390686,290.040771 106.492607,307.433929 120.328629,322.313232 
	C130.002884,332.716949 142.788239,337.530548 156.494507,339.980286 
	C185.106888,345.094238 212.891220,340.529968 240.119904,331.904083 
	C274.798187,320.918243 306.230988,303.843567 333.384460,279.447876 
	C351.031067,263.593536 366.108948,245.749573 373.299164,222.520416 
	C381.830719,194.957840 370.278351,171.823990 343.129822,161.899002 
	C339.572479,160.598511 335.918030,159.563644 332.487579,158.463181 
	C350.280914,155.913559 378.564209,163.460297 392.754639,174.629364 
	C409.165802,187.546341 414.788605,207.237701 408.280396,229.568787 
	C401.657867,252.292114 387.750458,270.433228 371.521881,286.998138 
	C365.587341,293.055695 359.143921,298.614746 352.448547,304.769135 
	C342.096130,312.127228 332.410583,319.394470 322.321472,326.049927 
	C301.290710,339.923248 278.818604,351.072754 254.923508,359.025818 
	C238.910187,364.355591 222.533249,368.592896 206.299286,373.324799 
	C260.057648,367.629425 310.142487,352.672180 351.826233,316.103912 
z"/>
<path fill="#0F8ABA" opacity="1.000000" stroke="none" 
	d="
M351.912354,315.698303 
	C310.142487,352.672180 260.057648,367.629425 206.299286,373.324799 
	C222.533249,368.592896 238.910187,364.355591 254.923508,359.025818 
	C278.818604,351.072754 301.290710,339.923248 322.321472,326.049927 
	C332.410583,319.394470 342.096130,312.127228 352.283020,305.082916 
	C352.655762,305.503693 352.709930,305.978638 352.500000,307.085144 
	C352.246246,308.609833 352.256592,309.502991 352.266937,310.396118 
	C352.177429,312.028320 352.087952,313.660522 351.912354,315.698303 
z"/>
<path fill="#02AFEF" opacity="1.000000" stroke="none" 
	d="
M352.460571,310.115295 
	C352.256592,309.502991 352.246246,308.609833 352.414276,307.435974 
	C352.613159,308.048340 352.633667,308.941376 352.460571,310.115295 
z"/>
<path fill="#FFFFFF" opacity="1.000000" stroke="none" 
	d="
M175.166321,248.669159 
	C175.181107,248.082733 175.454697,247.748169 175.728287,247.413605 
	C175.627243,247.916092 175.526199,248.418549 175.166321,248.669159 
z"/>
</svg>